<?xml version="1.0" encoding="utf-8"?>
<!-- Generator: Adobe Illustrator 26.0.3, SVG Export Plug-In . SVG Version: 6.00 Build 0)  -->
<svg version="1.1" xmlns="http://www.w3.org/2000/svg" xmlns:xlink="http://www.w3.org/1999/xlink" x="0px" y="0px"
	 viewBox="0 0 288 288" style="enable-background:new 0 0 288 288;" xml:space="preserve">
<style type="text/css">
	.st0{fill:#FFFFFF;}
</style>
<g id="Layer_2">
	<g id="Layer_2_00000134234664759414094670000011842898808336563870_">
		<circle class="st0" cx="144" cy="144" r="130.1"/>
	</g>
</g>
<g id="Layer_1">
	<g id="Layer_1_00000182496462221868542610000001389338699256916393_">
		<g transform="translate(0.000000,288.000000) scale(0.100000,-0.100000)">
			<path d="M1253.5,2476.2c-68-100-145-236-134-240c19-6,42-32,42-47c0-21-16-26-30-10c-7,8-18,15-25,15c-18,0-65-65-65-91
				c0-17-3-19-14-10s-17,2-34-36c-11-27-23-67-27-90c-6-36-4-43,9-43c20,0,20,1,1-45c-13-30-18-35-30-25c-8,7-15,23-15,36
				c0,28-11,31-32,7c-8-10-124-178-257-373s-271-396-306-446l-64-91l24-36l25-36l-20-51c-24-60-25-83-6-99c12-10,17-3,30,37
				c21,62,42,92,67,92s24-11-8-69l-28-49l24-26c16-17,28-23,34-17c7,7,19,3,35-9c33-26,60-25,72,3c5,12,25,38,45,57s48,55,62,80
				s42,65,63,90c40,49,130,198,130,216c0,6,9,23,21,37c34,44,131,68,299,74c139,5,165,12,157,38c-2,5-26,10-54,11c-28,0-68,9-88,18
				c-28,14-55,17-111,14c-66-3-74-1-74,14c0,16,11,18,108,18c59,0,165,3,236,7l129,6l-7-24c-3-13-9-45-13-72c-6-45-7-47-24-31
				s-19,15-29-10c-15-40-13-59,6-52c12,5,15,2,9-11c-16-39-24-76-19-85c9-15,24,2,24,28c0,17,5,24,20,24c25,0,28-41,4-65
				c-14-13-14-18-2-32c13-16,16-168,4-181c-3-3-15,3-26,13s-22,16-24,14s-5-56-7-119c-4-117,7-158,24-87c9,38,27,51,27,20
				c1-45,30-346,34-351c10-9,38,9,43,28c6,24,16,25,33,5c22-27,33-17,26,25c-5,32-3,40,9,40c8,0,18-14,23-32c4-18,16-34,25-36
				c15-3,17,12,17,152c0,86,4,156,8,156s13-5,19-11c11-11,29,76,54,261c7,52,16,98,21,101s14,42,20,85s17,91,24,107
				c14,27,16,27,112,27c53,0,154,3,225,7l127,6v-204c1-264,12-385,39-412c31-32,54-16,46,33s10,55,20,7c12-55,32-77,69-77
				c18,0,38,6,44,13c5,6,13,53,17,103c7,91,19,134,29,104c11-35,27-132,25-153c-4-29,8-48,26-40c13,4,15,50,15,303
				c0,164,3,305,6,314s12,16,19,16c25,0,27,20,6,49c-31,44-27,68,12,76c48,10,77,32,77,59s-29,56-56,56c-10,0-29,11-41,23
				c-20,21-21,33-22,187c-1,280-14,620-22,626c-19,11-49-17-49-46c0-62-44-29-84,63c-14,31-28,57-31,57c-2,0-21-8-40-17
				c-31-15-36-21-32-43c3-14,11-151,18-305c8-198,9-290,1-315c-10-34-10-33-12,25c-1,33-3,67-4,75c-2,8-6,101-10,205
				c-3,105-9,227-13,273l-6,82h-28c-31,0-37-14-15-39c7-9,17-33,20-54c7-36,6-38-13-32c-12,3-21,2-21-2c0-32,24-129,33-135
				c8-5,6-9-6-14c-23-9-22-28,2-21c13,3,21-1,24-15c4-14,0-22-14-25c-21-6-24-20-10-42c7-10,5-18-5-25c-12-10-11-21,10-83
				c22-66,23-74,8-82c-12-7-13-13-6-23c12-15,11-44-5-138c-6-36-11-82-11-102c0-21-3-38-7-39c-89-9-407-19-431-12
				c-46,12-18,18,68,15c86-4,90-3,90,17s5,21,110,21c92,0,110,2,110,15c0,14-24,15-203,9c-199-7-204-6-209,13c-3,11-6,146-8,299
				c-1,154-3,290-5,304c-1,14-3,48-4,75l-1,51l-47,12c-30,8-58,26-81,49c-29,31-42,37-85,41c-47,4-122-6-186-24c-20-6-23-4-18,9
				c4,10,5,17,4,17s-17,4-34,9C1275.5,2502.2,1269.5,2500.2,1253.5,2476.2z M1402.5,2002.2c0-13,2-41,4-63c22-222,13-274-50-301
				c-50-21-215-17-215,6c0,7,213,344,232,368C1389.5,2031.2,1401.5,2026.2,1402.5,2002.2z M1191.5,1934.2c0-16-100-180-110-180
				c-6,0-10,18-10,40c0,40,7,49,26,30c6-6,22,14,44,55C1173.5,1939.2,1191.5,1958.2,1191.5,1934.2z M915.5,1778.2
				c-16-23-34-32-34-16c0,4,7,18,16,30C918.5,1822.2,935.5,1809.2,915.5,1778.2z M861.5,1706.2c-1-13-51-64-57-58c-7,7,16,57,32,68
				C846.5,1723.2,861.5,1717.2,861.5,1706.2z M1031.5,1680.2c0-26-32-66-38-48c-3,11,25,72,33,72
				C1029.5,1704.2,1031.5,1693.2,1031.5,1680.2z M1382.5,1572.2c-17-18-196-17-213,0c-9,9,12,12,107,12S1392.5,1582.2,1382.5,1572.2
				z M2325.5,1232.2c3-17,4-34,1-37c-9-8-25,21-25,47C2301.5,1275.2,2318.5,1269.2,2325.5,1232.2z M2505.5,1043.2c9-46,7-139-3-139
				c-12,0-21,51-21,116C2481.5,1079.2,2495.5,1092.2,2505.5,1043.2z M1629.5,819.2c-4-66-22-78-26-16c-4,49,2,71,18,71
				C1628.5,874.2,1631.5,854.2,1629.5,819.2z M1451.5,849.2c0-15-46-32-57-22c-3,4-3,13,0,22
				C1402.5,869.2,1451.5,869.2,1451.5,849.2z"/>
			<path d="M1351.5,1019.2c0-36,4-65,9-65s15,25,22,56c11,47,10,57-2,65C1354.5,1091.2,1351.5,1085.2,1351.5,1019.2z"/>
		</g>
	</g>
</g>
</svg>
